<svg xmlns="http://www.w3.org/2000/svg" xmlns:xlink="http://www.w3.org/1999/xlink" viewBox="0 0 937.91 589.62"><defs><style>.cls-1{fill:#b7b7b7;}.cls-2{fill:#2d2d2d;}.cls-3{fill:url(#Degradado_sin_nombre);}.cls-4,.cls-8{fill:#303030;}.cls-5{fill:#e5e5e5;}.cls-6{fill:#747474;}.cls-7{fill:#4f4f4f;}.cls-8{stroke:#303030;}.cls-8,.cls-9{stroke-linejoin:round;stroke-width:0.97px;}.cls-9{fill:#868686;stroke:#868686;opacity:0.62;isolation:isolate;}.cls-10{fill:#fff;}.cls-11{fill:#cacaca;}.cls-12{fill:#313131;}</style><linearGradient id="Degradado_sin_nombre" x1="210.1" y1="435" x2="210.41" y2="353.26" gradientTransform="matrix(1.29, 0, 0, -1.29, 204.56, 746.33)" gradientUnits="userSpaceOnUse"><stop offset="0" stop-color="#868686"/><stop offset="1" stop-color="#575757" stop-opacity="0"/></linearGradient></defs><g id="Capa_2" data-name="Capa 2"><g id="Capa_1-2" data-name="Capa 1"><g id="Capa-8"><path class="cls-1" d="M377.68,145.58c-13.42-1-27.48-68.43,21.18-76.58C418.33,65.74,397.37,147.05,377.68,145.58Z"/></g><g id="Capa-4"><path class="cls-2" d="M488.93,3.69c-22.79-.5-44.72,8.61-62.46,24.28C412.55,40.26,392,67.32,383.61,132.23c-.13,1.05-21.8,53.1-52.92,84.19-32.61,32.58-119.11,58.28-145,69.68s-35.17,21.35-40.43,31.79c-3.75,7.44-5.1,14.18-4,19.74-22.41-6.4-44.87-11.38-63.85-12.4-10.72-.58-20.2-.08-27.76,1.74-21.25,5.12-36.69,22.76-38.34,44,0-.05-.5,4.75-.52,5.06A58.65,58.65,0,0,0,1.39,387.4L0,587.67l937.43,2-.52-197.33s-40.9,9.88-85,6.29a217.21,217.21,0,0,0,56.74-11c15.15-5.27,22.24-7.31,29.28-5.71a35.68,35.68,0,0,1-.3-6.4c-2.73-.64-21.08,3.52-30.72,6.87-35.4,12.31-94,18-129.95-5.76-3.56-2.61-4.91-4.7-4.34-6.64.62-2.12,2.87-4.49,7.29-7.86,1.19-.91,1.51-1.2,4.68-3.49,8.84-6.39,12.48-9.67,14.06-14.5,2.22-6.85-2.06-13.33-13.19-19.74s-28-13.49-41.47-15.89c-20.06-3.56-110.8-28.56-113.64-37.38s-.8-26.95,36.89-35.7c7.81-1.81,25.1-5.38,30.43-10,7.56-6.63,7.81-15.9,0-28.12l-2.95-4.54A139.13,139.13,0,0,0,686,180.09c-2.49-3.16-8.82-11.66-8.84-11.7-.71-.94-.78-1.11-1.39-1.92C655.87,136.32,569.14,52.8,565.09,49.1,553.78,24.58,511.71,4.19,488.93,3.69ZM582.1,77.92c17.33,13.34,53.26,95.84,46.84,139.2-1.8,12.19-6.32,26.58-10.06,40.17-8.9-13.48-14.4-31-13.53-56.42C607.17,147.2,596.46,107.37,582.1,77.92Zm23.07,21c26.38,24.83,42,40.75,56.56,58.68,3.14,3.87,5.57,7,10.93,14.15l4.86,6.46c.34.54.89,1,1.22,1.57,14.91,24.71,7.46,39-11.62,49.07s-38.23,13.52-42.34,36.69c-.62-.7-1.14-1.55-1.74-2.27,4.63-16.07,9.34-31.46,11.45-45.24C639.53,185.19,625.82,136.34,605.17,98.88Zm-231.8,98.85c-5.61,30.19-13.11,54.93-29.49,67.24-19.15,14.39-48,19.33-74.51,37.68a115.8,115.8,0,0,0-19.7,17.16c-5.77,6.31-21,15.94-23.27,16s-10-24.48,25.13-43.65,50.19-15.71,80.4-32.73C349.72,249.38,372.29,199.3,373.37,197.73Zm318.55.87c.42.65.86,1.29,1,1.57,6.45,10.09,6.29,16.36,1,21-4.24,3.73-10.53,6-24.11,9.61C686.8,221.4,694.07,212.15,691.92,198.6Zm-332.08,5.94c-.29.72-1,2.17-1.39,3-28,32.69-68.36,54.63-123.7,69.34-2.9.77-5.93,1.46-9.2,2.09-4.4.86-7.84,1.44-16,2.62-2.08.31-3,.58-4.86.88,2.89-1.16,5.18-2.4,8.5-3.5C295.3,251.81,337.44,224.73,359.84,204.54ZM350.3,225c-6.22,12.48-13.77,25.42-23.25,32.83-18.73,14.64-84.68,18.08-104.27,59.73-3.52,7.48-3.19,14.42,0,19.93-19.68,10.13-46,8.74-47.53,8.54,0,0-25.08-25.93,5.2-50.12,1.79-1.43,4.41-2.9,6.59-4.37a233.06,233.06,0,0,1,23.25-4.37c8.21-1.2,11.8-1.74,16.31-2.62,3.38-.65,6.52-1.46,9.55-2.27C284.64,269.37,322.26,251.2,350.3,225ZM172.63,296.76c-21,25.69-1.2,48.17-1.19,48.17s-20-4-23.44-5c-3-4.39-2.2-11.07,2.08-19.56A69.34,69.34,0,0,1,160.14,306c.36-.4.68-.5,1-.88C165.05,301.08,169.11,297.61,172.63,296.76ZM686,301c.28,0,30.67,9.32,40.26,11.53,3.27.75,36.36,9.89,46.49,17.46,17.7,13.22,9.82,30.16-13,34.76-.09,0-.08.15-.17.17-20.88-18.89-15.8-37.17-38-48.72C710,310.13,697.88,305.57,686,301Zm90.92,25.67c1.82.92,4,1.64,5.72,2.62,9.13,5.25,12,9.4,10.76,13.1-.57,1.77-4.31,4.38-6.59,6.47a19.37,19.37,0,0,0-1.22-11.18A27.86,27.86,0,0,0,776.94,326.62Zm-699.39,4.2a235.54,235.54,0,0,1,31.76,4.36c11.26,2.24,23,5.15,34.52,8.56.12.16.4.2.52.35C90.8,341.27,56.14,349.72,34.53,360A96,96,0,0,0,17,370.46a44,44,0,0,1,33.84-38.07C58,330.66,67.14,330.21,77.55,330.82ZM768.44,367a19.47,19.47,0,0,0-.87,4.37c-1.31-.9-2.13-1.73-3.3-2.62A41.38,41.38,0,0,0,768.44,367Z"/></g><g id="Capa-5"><path class="cls-3" d="M448,225.19s-2.82-22.47,6.28-27.95c1.72-1,24.49,23.41,56.18,1.25,4.62-3.23,5,25.79,2,29-.73.79,60.21,40.78,42.83,70.57-6,10.22-21.68,42.92-72.93,42.6-41.81-.25-89.62-41.69-89-43.56C409.58,251.35,448,225.19,448,225.19Z"/><path class="cls-4" d="M454.34,196c21.06-18.78,49.9-11.52,57,1.85,3.25,6.16-10.89,11.24-27.71,11.81S448.87,200.85,454.34,196Z"/></g><g id="Capa-3"><path class="cls-1" d="M487.94.08a79.66,79.66,0,0,0-31.41,5.23c-13.29,5.16-29.67,19-24.46,16.6C514.38-16.7,544.5,89.67,544.5,89.67s-11.41,55.28-3.12,61.48c6.67,5,29.59,3.47,33.31-28.82,2.88-25-8.72-39.68-18.57-40,.1-.49.63-.86.52-1.4C543.76,16.35,512.48,1.22,487.94.08Z"/><path class="cls-5" d="M464.4,199.93l3.7-34.7s-41.53-7.53-51.93-30.49c-13.78-30.45,3.31-88.58,29.52-100.57,1.34-.62-10,20.95-4.51,25.78,1,.86,7.68-24.56,33.67-24.43,22.61.1,27.64,22.75,37.33,25,4.14,1-16.64-27.51-6.83-22.6,31.59,15.84,14,113.59,14,113.59s-9.95,4.6-11.83,7.62c-7.56,12.15-4,38.46-5.85,39.66C481,212.23,464.4,199.93,464.4,199.93Z"/></g><g id="Capa-1"><path class="cls-6" d="M441.1,104.44c3.16-2.37,7.87-2,7.87-2s8.44,5.62,17.27,6.34c14.47,1.17,20.28-6.21,27.92,2.7s-6.52,32.08-30.67,29.32C436.93,137.8,435.3,108.78,441.1,104.44Z"/><path class="cls-7" d="M455.93,127.36c3.17-24.53,27.15-16.33,23.93,1.66C478.83,134.77,455.18,133.15,455.93,127.36Z"/><path class="cls-8" d="M432.23,88.46a3.58,3.58,0,1,1,3.58,3.7A3.64,3.64,0,0,1,432.23,88.46Z"/><path class="cls-8" d="M482.17,93.29A3.58,3.58,0,1,1,485.75,97,3.64,3.64,0,0,1,482.17,93.29Z"/><path class="cls-9" d="M500,108.16a11.23,11.23,0,1,1,11.23,11.5A11.37,11.37,0,0,1,500,108.16Z"/><path class="cls-9" d="M411.94,107.11a9.51,9.51,0,1,1,9.51,9.34A9.43,9.43,0,0,1,411.94,107.11Z"/><path class="cls-10" d="M449,102.54c-.72-.43,1.12,9.22,4.51,11.64,7.28,5.21,22.31,4.71,27.68,4,2.38-.31,10.09-9.46,10.09-9.46a11.83,11.83,0,0,0-4.45-1.63C477.34,106.34,468.08,114,449,102.54Z"/><path class="cls-11" d="M464.55,126.5c-11.23-.34-19.63,2.91-19.42,4.09,1.2,6.74,22.69,20.35,44.1,1.65C490.6,131,479.51,126.93,464.55,126.5Z"/><path class="cls-12" d="M445.43,51.25c-6.69-1.54-14.5.11-21.86,7.16a3,3,0,0,0,0,4.19,2.75,2.75,0,0,0,4,0c5.85-5.59,11.75-6.71,16.66-5.59.51.12.75.13.86.18a2.94,2.94,0,0,0,2.26-5.42A14.69,14.69,0,0,0,445.43,51.25Z"/><path class="cls-2" d="M497.65,59.28a24.8,24.8,0,0,1,11.11,12.4,3,3,0,0,1-1.56,3.85A2.93,2.93,0,0,1,503.38,74a19,19,0,0,0-8.5-9.6,24.79,24.79,0,0,0-7.46-2.62,19.44,19.44,0,0,0-3.3-.35,3,3,0,0,1-2.95-3,2.84,2.84,0,0,1,2.95-2.8A28.86,28.86,0,0,1,497.65,59.28Z"/></g><g id="Capa-6"><path class="cls-4" d="M462.35,202.64a1.67,1.67,0,0,0-1,.81,27.65,27.65,0,0,0-2.46,6,62.13,62.13,0,0,0-2.22,21.37,1.76,1.76,0,0,0,1.85,1.65,1.71,1.71,0,0,0,1.62-1.81,58.87,58.87,0,0,1,2.09-20.2,31.85,31.85,0,0,1,1.49-4,12.24,12.24,0,0,1,.61-1.21,1.78,1.78,0,0,0-.61-2.42A1.74,1.74,0,0,0,462.35,202.64Z"/><path class="cls-4" d="M473.88,205.74a1.77,1.77,0,0,0-2.09,1.33c0,.17-.09.46-.16.89-.13.71-.25,1.55-.37,2.5a91.52,91.52,0,0,0,.53,23.46,1.71,1.71,0,0,0,1.93,1.49,1.75,1.75,0,0,0,1.49-2,88.08,88.08,0,0,1-.48-22.58c.11-.88.21-1.65.32-2.3.07-.37.1-.61.12-.72A1.74,1.74,0,0,0,473.88,205.74Z"/><path class="cls-4" d="M486.26,207.64a1.71,1.71,0,0,0-1.37,2c0,.07.2,1.16.28,1.62.22,1.3.44,2.77.65,4.31a104,104,0,0,1,.92,11,49,49,0,0,1-.4,7.91,1.75,1.75,0,0,0,3.47.48,53,53,0,0,0,.4-8.47,105.42,105.42,0,0,0-.93-11.44c-.21-1.59-.46-3.06-.68-4.4-.08-.47-.27-1.61-.29-1.69A1.75,1.75,0,0,0,486.26,207.64Z"/><path class="cls-4" d="M503.27,205.14a1.78,1.78,0,0,0-1.33.28,1.69,1.69,0,0,0-.48,2.38c.08.12.25.41.48.85a21.25,21.25,0,0,1,1.17,2.66,29.51,29.51,0,0,1,0,19.95,1.76,1.76,0,0,0,1.09,2.22,1.78,1.78,0,0,0,2.22-1.13,33,33,0,0,0-.09-22.25,21.6,21.6,0,0,0-2-4.24A1.68,1.68,0,0,0,503.27,205.14Z"/></g></g></g></svg>